<?xml version="1.0" standalone="no"?>
<!DOCTYPE svg PUBLIC "-//W3C//DTD SVG 20010904//EN"
 "http://www.w3.org/TR/2001/REC-SVG-20010904/DTD/svg10.dtd">
<svg version="1.0" xmlns="http://www.w3.org/2000/svg"
 width="600.000000pt" height="600.000000pt" viewBox="0 0 600.000000 600.000000"
 preserveAspectRatio="xMidYMid meet">

<g transform="translate(0.000000,600.000000) scale(0.100000,-0.100000)"
fill="#000000" stroke="none">
<path d="M2750 5989 c-832 -73 -1602 -490 -2113 -1144 -598 -766 -788 -1781
-507 -2712 172 -569 511 -1077 970 -1452 436 -357 947 -577 1525 -658 182 -25
568 -25 750 0 578 81 1089 301 1525 658 902 737 1293 1931 1004 3064 -216 842
-782 1543 -1564 1934 -315 157 -616 249 -966 296 -144 19 -480 27 -624 14z
m670 -850 c432 -41 845 -158 1170 -330 130 -69 340 -210 378 -254 47 -52 83
-130 89 -189 l5 -51 -1036 -1034 -1035 -1035 -178 172 c-98 94 -291 285 -430
424 l-252 253 214 215 215 215 147 -155 c81 -85 178 -186 215 -225 l67 -70 31
30 c122 115 1152 1167 1147 1171 -2 3 -59 27 -124 54 -230 93 -479 156 -738
186 -176 20 -574 15 -735 -11 -343 -54 -634 -152 -917 -308 l-113 -62 0 -353
c0 -194 5 -396 11 -450 80 -727 546 -1436 1341 -2041 l97 -73 98 68 c221 154
524 422 663 586 19 23 55 61 78 86 24 24 39 41 34 38 -6 -4 31 49 82 116 222
296 388 641 456 945 11 51 20 103 20 115 0 17 83 106 298 321 164 164 301 295
305 291 4 -4 7 -3 7 2 0 6 7 19 15 30 25 31 14 -433 -14 -618 -154 -997 -776
-1856 -1888 -2606 -83 -56 -155 -102 -158 -102 -3 0 -5 9 -3 19 2 14 -40 51
-172 152 -96 72 -220 168 -275 213 -55 44 -94 73 -87 64 7 -9 79 -69 160 -134
175 -140 189 -153 138 -124 -50 27 -337 256 -498 397 -172 149 -434 414 -559
565 -402 483 -621 955 -711 1528 -21 137 -23 173 -23 695 l0 550 33 67 c54
110 155 183 444 323 571 275 1311 399 1988 334z"/>
<path d="M996 4465 c-9 -26 -7 -32 5 -12 6 10 9 21 6 23 -2 3 -7 -2 -11 -11z"/>
<path d="M981 4414 c0 -11 3 -14 6 -6 3 7 2 16 -1 19 -3 4 -6 -2 -5 -13z"/>
<path d="M973 4355 c0 -22 2 -30 4 -17 2 12 2 30 0 40 -3 9 -5 -1 -4 -23z"/>
<path d="M973 3430 c0 -41 2 -58 4 -37 2 20 2 54 0 75 -2 20 -4 3 -4 -38z"/>
<path d="M983 3295 c0 -22 2 -30 4 -17 2 12 2 30 0 40 -3 9 -5 -1 -4 -23z"/>
<path d="M992 3210 c0 -19 2 -27 5 -17 2 9 2 25 0 35 -3 9 -5 1 -5 -18z"/>
<path d="M1002 3135 c0 -16 2 -22 5 -12 2 9 2 23 0 30 -3 6 -5 -1 -5 -18z"/>
<path d="M1012 3080 c0 -14 2 -19 5 -12 2 6 2 18 0 25 -3 6 -5 1 -5 -13z"/>
<path d="M2180 3076 c0 -2 8 -10 18 -17 15 -13 16 -12 3 4 -13 16 -21 21 -21
13z"/>
<path d="M1021 3024 c0 -11 3 -14 6 -6 3 7 2 16 -1 19 -3 4 -6 -2 -5 -13z"/>
<path d="M4411 3024 c0 -11 3 -14 6 -6 3 7 2 16 -1 19 -3 4 -6 -2 -5 -13z"/>
<path d="M1031 2974 c0 -11 3 -14 6 -6 3 7 2 16 -1 19 -3 4 -6 -2 -5 -13z"/>
<path d="M1041 2934 c0 -11 3 -14 6 -6 3 7 2 16 -1 19 -3 4 -6 -2 -5 -13z"/>
<path d="M4381 2914 c0 -11 3 -14 6 -6 3 7 2 16 -1 19 -3 4 -6 -2 -5 -13z"/>
<path d="M4331 2769 c-6 -18 -9 -34 -7 -36 2 -2 9 10 15 28 6 18 9 34 7 36 -2
2 -9 -10 -15 -28z"/>
<path d="M4302 2695 c-17 -37 -14 -45 4 -12 9 16 14 31 11 33 -2 2 -9 -7 -15
-21z"/>
<path d="M4239 2558 c-24 -50 -81 -151 -126 -225 -45 -73 -79 -133 -77 -133
18 0 264 434 252 445 -2 3 -24 -37 -49 -87z"/>
<path d="M2250 1106 c0 -2 8 -10 18 -17 15 -13 16 -12 3 4 -13 16 -21 21 -21
13z"/>
<path d="M2330 1035 c13 -14 26 -25 28 -25 3 0 -5 11 -18 25 -13 14 -26 25
-28 25 -3 0 5 -11 18 -25z"/>
<path d="M2400 975 c13 -14 26 -25 28 -25 3 0 -5 11 -18 25 -13 14 -26 25 -28
25 -3 0 5 -11 18 -25z"/>
</g>
</svg>
